<svg width="15" height="19" viewBox="0 0 15 19" fill="none" xmlns="http://www.w3.org/2000/svg">
<path d="M4.41314 3.40854C4.21837 3.60429 4.21916 3.92087 4.41491 4.11565C4.61066 4.31042 4.92724 4.30963 5.12201 4.11388L4.41314 3.40854ZM7.90359 1.3184C8.09836 1.12265 8.09757 0.806069 7.90182 0.611295C7.70608 0.41652 7.38949 0.41731 7.19472 0.613058L7.90359 1.3184ZM7.90359 0.613058C7.70881 0.41731 7.39223 0.41652 7.19648 0.611295C7.00074 0.806069 6.99995 1.12265 7.19472 1.3184L7.90359 0.613058ZM9.9763 4.11388C10.1711 4.30963 10.4877 4.31042 10.6834 4.11565C10.8791 3.92087 10.8799 3.60429 10.6852 3.40854L9.9763 4.11388ZM8.04915 0.965602C8.04915 0.68946 7.8253 0.465602 7.54915 0.465602C7.27301 0.465602 7.04915 0.68946 7.04915 0.965602L8.04915 0.965602ZM7.04915 13.9463C7.04915 14.2224 7.27301 14.4463 7.54915 14.4463C7.8253 14.4463 8.04915 14.2224 8.04915 13.9463L7.04915 13.9463ZM5.12201 4.11388L7.90359 1.3184L7.19472 0.613058L4.41314 3.40854L5.12201 4.11388ZM7.19472 1.3184L9.9763 4.11388L10.6852 3.40854L7.90359 0.613058L7.19472 1.3184ZM7.04915 0.965602L7.04915 13.9463L8.04915 13.9463L8.04915 0.965602L7.04915 0.965602Z" fill="#165d59"/>
<path d="M4.76714 6.52881C2.71885 6.52881 1.05838 8.18928 1.05838 10.2376L1.05838 13.9463C1.05838 15.9946 2.71885 17.6551 4.76714 17.6551L10.3303 17.6551C12.3786 17.6551 14.0391 15.9946 14.0391 13.9463L14.0391 10.2376C14.0391 8.18928 12.3786 6.52881 10.3303 6.52881" stroke="#165d59" stroke-linecap="round" stroke-linejoin="round"/>
<path d="M4.76714 6.52881C2.71885 6.52881 1.05838 8.18928 1.05838 10.2376L1.05838 13.9463C1.05838 15.9946 2.71885 17.6551 4.76714 17.6551L10.3303 17.6551C12.3786 17.6551 14.0391 15.9946 14.0391 13.9463L14.0391 10.2376C14.0391 8.18928 12.3786 6.52881 10.3303 6.52881" stroke="#165d59" stroke-linecap="round" stroke-linejoin="round"/>
</svg>
