<svg width="19" height="19" viewBox="0 0 19 19" fill="none" xmlns="http://www.w3.org/2000/svg">
<path fill-rule="evenodd" clip-rule="evenodd" d="M2.65723 2.73532C3.6757 1.66147 4.03635 1.36025 4.46994 1.22113C4.77047 1.14207 5.08573 1.13744 5.38845 1.20762C5.78692 1.32378 5.89093 1.41158 7.19846 2.71236C8.3466 3.85509 8.46007 3.97936 8.57083 4.19819C8.78508 4.59204 8.81952 5.05903 8.66538 5.48005C8.55192 5.79748 8.38442 6.0082 7.68879 6.70789L7.23493 7.16309C7.11553 7.28421 7.08722 7.46823 7.16469 7.61964C8.17219 9.33858 9.60126 10.7723 11.3169 11.7854C11.5148 11.8915 11.7586 11.857 11.9193 11.7003L12.3556 11.2707C12.6252 10.9941 12.9107 10.7334 13.2107 10.49C13.681 10.199 14.2681 10.1709 14.764 10.4157C15.0058 10.5292 15.0869 10.6035 16.2715 11.784C17.4872 12.9997 17.5263 13.0389 17.6628 13.3185C17.9175 13.7816 17.9149 14.3435 17.656 14.8043C17.5209 15.0636 17.4453 15.1582 16.7591 15.8592C16.3444 16.2834 15.9486 16.6697 15.8919 16.7264C15.3252 17.1948 14.5988 17.4248 13.8658 17.368C12.5248 17.2453 11.2269 16.8303 10.0634 16.1524C7.4846 14.786 5.28938 12.7952 3.6784 10.3617C3.32611 9.85293 3.01275 9.31832 2.74098 8.76238C2.01685 7.521 1.64249 6.10666 1.65767 4.6696C1.71214 3.91523 2.0734 3.21614 2.65723 2.73532Z" stroke="#165d59" stroke-width="1.5" stroke-linecap="round" stroke-linejoin="round"/>
</svg>
